<mxfile host="Electron" modified="2024-12-20T02:32:51.778Z" agent="Mozilla/5.0 (Windows NT 10.0; Win64; x64) AppleWebKit/537.36 (KHTML, like Gecko) draw.io/23.0.2 Chrome/120.0.6099.109 Electron/28.1.0 Safari/537.36" etag="wCmfHJ8NY6778N_nPcuM" version="23.0.2" type="device">
  <diagram name="Page-1" id="DD-IvgS3TOkJKNBWbfsZ">
    <mxGraphModel dx="2294" dy="1066" grid="1" gridSize="10" guides="1" tooltips="1" connect="1" arrows="1" fold="1" page="1" pageScale="1" pageWidth="827" pageHeight="1169" math="0" shadow="0">
      <root>
        <mxCell id="0" />
        <mxCell id="1" parent="0" />
        <mxCell id="JzmQsRfm4UZ02VzO3dNn-3" value="" style="edgeStyle=orthogonalEdgeStyle;rounded=0;orthogonalLoop=1;jettySize=auto;html=1;" edge="1" parent="1" source="JzmQsRfm4UZ02VzO3dNn-1" target="JzmQsRfm4UZ02VzO3dNn-2">
          <mxGeometry relative="1" as="geometry" />
        </mxCell>
        <mxCell id="JzmQsRfm4UZ02VzO3dNn-1" value="SoM ESP32-S3" style="rounded=0;whiteSpace=wrap;html=1;" vertex="1" parent="1">
          <mxGeometry x="340" y="170" width="130" height="50" as="geometry" />
        </mxCell>
        <mxCell id="JzmQsRfm4UZ02VzO3dNn-5" value="ETH" style="edgeStyle=orthogonalEdgeStyle;rounded=0;orthogonalLoop=1;jettySize=auto;html=1;" edge="1" parent="1" source="JzmQsRfm4UZ02VzO3dNn-2" target="JzmQsRfm4UZ02VzO3dNn-4">
          <mxGeometry relative="1" as="geometry" />
        </mxCell>
        <mxCell id="JzmQsRfm4UZ02VzO3dNn-32" value="CAN ou Diff I2C(ETH)" style="edgeStyle=orthogonalEdgeStyle;rounded=0;orthogonalLoop=1;jettySize=auto;html=1;" edge="1" parent="1" source="JzmQsRfm4UZ02VzO3dNn-2" target="JzmQsRfm4UZ02VzO3dNn-31">
          <mxGeometry x="0.5629" relative="1" as="geometry">
            <mxPoint as="offset" />
          </mxGeometry>
        </mxCell>
        <mxCell id="JzmQsRfm4UZ02VzO3dNn-2" value="MOBO" style="rounded=0;whiteSpace=wrap;html=1;fillColor=#008a00;fontColor=#ffffff;strokeColor=#005700;" vertex="1" parent="1">
          <mxGeometry x="340" y="240" width="130" height="50" as="geometry" />
        </mxCell>
        <mxCell id="JzmQsRfm4UZ02VzO3dNn-9" value="Diff I2C (ETH)" style="edgeStyle=orthogonalEdgeStyle;rounded=0;orthogonalLoop=1;jettySize=auto;html=1;" edge="1" parent="1" source="JzmQsRfm4UZ02VzO3dNn-4" target="JzmQsRfm4UZ02VzO3dNn-8">
          <mxGeometry relative="1" as="geometry" />
        </mxCell>
        <mxCell id="JzmQsRfm4UZ02VzO3dNn-12" value="CAN" style="edgeStyle=orthogonalEdgeStyle;rounded=0;orthogonalLoop=1;jettySize=auto;html=1;" edge="1" parent="1" source="JzmQsRfm4UZ02VzO3dNn-4" target="JzmQsRfm4UZ02VzO3dNn-11">
          <mxGeometry relative="1" as="geometry">
            <Array as="points">
              <mxPoint x="30" y="390" />
              <mxPoint x="30" y="345" />
            </Array>
          </mxGeometry>
        </mxCell>
        <mxCell id="JzmQsRfm4UZ02VzO3dNn-4" value="Moustache jambe gauche" style="rounded=0;whiteSpace=wrap;html=1;fillColor=#1ba1e2;strokeColor=#006EAF;fontColor=#ffffff;" vertex="1" parent="1">
          <mxGeometry x="70" y="360" width="130" height="50" as="geometry" />
        </mxCell>
        <mxCell id="JzmQsRfm4UZ02VzO3dNn-8" value="BNO085 tibia" style="rounded=0;whiteSpace=wrap;html=1;fillColor=#f0a30a;fontColor=#000000;strokeColor=#BD7000;" vertex="1" parent="1">
          <mxGeometry x="150" y="490" width="130" height="50" as="geometry" />
        </mxCell>
        <mxCell id="JzmQsRfm4UZ02VzO3dNn-10" value="BNO085 cuisse" style="rounded=0;whiteSpace=wrap;html=1;fillColor=#f0a30a;fontColor=#000000;strokeColor=#BD7000;" vertex="1" parent="1">
          <mxGeometry x="-10" y="490" width="130" height="50" as="geometry" />
        </mxCell>
        <mxCell id="JzmQsRfm4UZ02VzO3dNn-11" value="Moteur Hanche" style="rounded=0;whiteSpace=wrap;html=1;fillColor=#6d8764;fontColor=#ffffff;strokeColor=#3A5431;" vertex="1" parent="1">
          <mxGeometry x="-130" y="320" width="130" height="50" as="geometry" />
        </mxCell>
        <mxCell id="JzmQsRfm4UZ02VzO3dNn-13" value="Moteur Genou" style="rounded=0;whiteSpace=wrap;html=1;fillColor=#6d8764;fontColor=#ffffff;strokeColor=#3A5431;" vertex="1" parent="1">
          <mxGeometry x="-130" y="410" width="130" height="50" as="geometry" />
        </mxCell>
        <mxCell id="JzmQsRfm4UZ02VzO3dNn-14" value="CAN" style="endArrow=classic;html=1;rounded=0;entryX=1;entryY=0.5;entryDx=0;entryDy=0;" edge="1" parent="1" target="JzmQsRfm4UZ02VzO3dNn-13">
          <mxGeometry width="50" height="50" relative="1" as="geometry">
            <mxPoint x="30" y="390" as="sourcePoint" />
            <mxPoint x="70" y="440" as="targetPoint" />
            <Array as="points">
              <mxPoint x="30" y="435" />
            </Array>
          </mxGeometry>
        </mxCell>
        <mxCell id="JzmQsRfm4UZ02VzO3dNn-15" value="Diff I2C (ETH)" style="endArrow=classic;html=1;rounded=0;entryX=0.5;entryY=0;entryDx=0;entryDy=0;" edge="1" parent="1" target="JzmQsRfm4UZ02VzO3dNn-10">
          <mxGeometry width="50" height="50" relative="1" as="geometry">
            <mxPoint x="140" y="450" as="sourcePoint" />
            <mxPoint x="100" y="430" as="targetPoint" />
            <Array as="points">
              <mxPoint x="55" y="450" />
            </Array>
          </mxGeometry>
        </mxCell>
        <mxCell id="JzmQsRfm4UZ02VzO3dNn-26" value="ETH" style="endArrow=classic;html=1;rounded=0;exitX=1;exitY=0.5;exitDx=0;exitDy=0;entryX=0.5;entryY=0;entryDx=0;entryDy=0;" edge="1" parent="1" source="JzmQsRfm4UZ02VzO3dNn-2" target="JzmQsRfm4UZ02VzO3dNn-18">
          <mxGeometry width="50" height="50" relative="1" as="geometry">
            <mxPoint x="580" y="300" as="sourcePoint" />
            <mxPoint x="630" y="250" as="targetPoint" />
            <Array as="points">
              <mxPoint x="665" y="265" />
            </Array>
          </mxGeometry>
        </mxCell>
        <mxCell id="JzmQsRfm4UZ02VzO3dNn-27" value="Montre intelligente" style="rounded=0;whiteSpace=wrap;html=1;" vertex="1" parent="1">
          <mxGeometry x="75" y="60" width="120" height="60" as="geometry" />
        </mxCell>
        <mxCell id="JzmQsRfm4UZ02VzO3dNn-28" value="Sans fil" style="endArrow=none;dashed=1;html=1;rounded=0;exitX=1;exitY=0.5;exitDx=0;exitDy=0;entryX=0;entryY=0.5;entryDx=0;entryDy=0;" edge="1" parent="1" source="JzmQsRfm4UZ02VzO3dNn-27" target="JzmQsRfm4UZ02VzO3dNn-1">
          <mxGeometry width="50" height="50" relative="1" as="geometry">
            <mxPoint x="260" y="140" as="sourcePoint" />
            <mxPoint x="310" y="90" as="targetPoint" />
          </mxGeometry>
        </mxCell>
        <mxCell id="JzmQsRfm4UZ02VzO3dNn-31" value="BMS" style="rounded=0;whiteSpace=wrap;html=1;" vertex="1" parent="1">
          <mxGeometry x="240" y="350" width="130" height="50" as="geometry" />
        </mxCell>
        <mxCell id="JzmQsRfm4UZ02VzO3dNn-33" value="BNO085 Dos" style="rounded=0;whiteSpace=wrap;html=1;fillColor=#f0a30a;fontColor=#000000;strokeColor=#BD7000;" vertex="1" parent="1">
          <mxGeometry x="440" y="350" width="130" height="50" as="geometry" />
        </mxCell>
        <mxCell id="JzmQsRfm4UZ02VzO3dNn-34" value="Diff I2C(ETH)" style="endArrow=classic;html=1;rounded=0;entryX=0.5;entryY=0;entryDx=0;entryDy=0;" edge="1" parent="1" target="JzmQsRfm4UZ02VzO3dNn-33">
          <mxGeometry width="50" height="50" relative="1" as="geometry">
            <mxPoint x="400" y="320" as="sourcePoint" />
            <mxPoint x="450" y="370" as="targetPoint" />
            <Array as="points">
              <mxPoint x="505" y="320" />
            </Array>
          </mxGeometry>
        </mxCell>
        <mxCell id="JzmQsRfm4UZ02VzO3dNn-37" value="Batterie pack 5V" style="rounded=0;whiteSpace=wrap;html=1;fillColor=#a20025;fontColor=#ffffff;strokeColor=#6F0000;" vertex="1" parent="1">
          <mxGeometry x="530" y="130" width="120" height="60" as="geometry" />
        </mxCell>
        <mxCell id="JzmQsRfm4UZ02VzO3dNn-18" value="Moustache jambe gauche" style="rounded=0;whiteSpace=wrap;html=1;fillColor=#1ba1e2;strokeColor=#006EAF;fontColor=#ffffff;" vertex="1" parent="1">
          <mxGeometry x="600" y="360" width="130" height="50" as="geometry" />
        </mxCell>
        <mxCell id="JzmQsRfm4UZ02VzO3dNn-19" value="BNO085 tibia" style="rounded=0;whiteSpace=wrap;html=1;fillColor=#f0a30a;fontColor=#000000;strokeColor=#BD7000;" vertex="1" parent="1">
          <mxGeometry x="520" y="490" width="130" height="50" as="geometry" />
        </mxCell>
        <mxCell id="JzmQsRfm4UZ02VzO3dNn-16" value="" style="edgeStyle=orthogonalEdgeStyle;rounded=0;orthogonalLoop=1;jettySize=auto;html=1;" edge="1" parent="1" source="JzmQsRfm4UZ02VzO3dNn-18" target="JzmQsRfm4UZ02VzO3dNn-19">
          <mxGeometry relative="1" as="geometry" />
        </mxCell>
        <mxCell id="JzmQsRfm4UZ02VzO3dNn-29" value="Diff I2C (ETH)" style="edgeLabel;html=1;align=center;verticalAlign=middle;resizable=0;points=[];" vertex="1" connectable="0" parent="JzmQsRfm4UZ02VzO3dNn-16">
          <mxGeometry x="0.1632" relative="1" as="geometry">
            <mxPoint as="offset" />
          </mxGeometry>
        </mxCell>
        <mxCell id="JzmQsRfm4UZ02VzO3dNn-20" value="BNO085 cuisse" style="rounded=0;whiteSpace=wrap;html=1;fillColor=#f0a30a;fontColor=#000000;strokeColor=#BD7000;" vertex="1" parent="1">
          <mxGeometry x="680" y="490" width="130" height="50" as="geometry" />
        </mxCell>
        <mxCell id="JzmQsRfm4UZ02VzO3dNn-21" value="Moteur Hanche" style="rounded=0;whiteSpace=wrap;html=1;fillColor=#6d8764;fontColor=#ffffff;strokeColor=#3A5431;" vertex="1" parent="1">
          <mxGeometry x="800" y="320" width="130" height="50" as="geometry" />
        </mxCell>
        <mxCell id="JzmQsRfm4UZ02VzO3dNn-17" value="CAN" style="edgeStyle=orthogonalEdgeStyle;rounded=0;orthogonalLoop=1;jettySize=auto;html=1;" edge="1" parent="1" source="JzmQsRfm4UZ02VzO3dNn-18" target="JzmQsRfm4UZ02VzO3dNn-21">
          <mxGeometry relative="1" as="geometry">
            <Array as="points">
              <mxPoint x="770" y="390" />
              <mxPoint x="770" y="345" />
            </Array>
          </mxGeometry>
        </mxCell>
        <mxCell id="JzmQsRfm4UZ02VzO3dNn-22" value="Moteur Genou" style="rounded=0;whiteSpace=wrap;html=1;fillColor=#6d8764;fontColor=#ffffff;strokeColor=#3A5431;" vertex="1" parent="1">
          <mxGeometry x="800" y="410" width="130" height="50" as="geometry" />
        </mxCell>
        <mxCell id="JzmQsRfm4UZ02VzO3dNn-23" value="CAN" style="endArrow=classic;html=1;rounded=0;entryX=0;entryY=0.5;entryDx=0;entryDy=0;" edge="1" parent="1" target="JzmQsRfm4UZ02VzO3dNn-22">
          <mxGeometry width="50" height="50" relative="1" as="geometry">
            <mxPoint x="770" y="390" as="sourcePoint" />
            <mxPoint x="730" y="440" as="targetPoint" />
            <Array as="points">
              <mxPoint x="770" y="435" />
            </Array>
          </mxGeometry>
        </mxCell>
        <mxCell id="JzmQsRfm4UZ02VzO3dNn-24" value="" style="endArrow=classic;html=1;rounded=0;entryX=0.5;entryY=0;entryDx=0;entryDy=0;" edge="1" parent="1" target="JzmQsRfm4UZ02VzO3dNn-20">
          <mxGeometry width="50" height="50" relative="1" as="geometry">
            <mxPoint x="660" y="450" as="sourcePoint" />
            <mxPoint x="700" y="430" as="targetPoint" />
            <Array as="points">
              <mxPoint x="745" y="450" />
            </Array>
          </mxGeometry>
        </mxCell>
        <mxCell id="JzmQsRfm4UZ02VzO3dNn-30" value="Diff I2C (ETH)" style="edgeLabel;html=1;align=center;verticalAlign=middle;resizable=0;points=[];" vertex="1" connectable="0" parent="JzmQsRfm4UZ02VzO3dNn-24">
          <mxGeometry x="-0.3186" relative="1" as="geometry">
            <mxPoint as="offset" />
          </mxGeometry>
        </mxCell>
        <mxCell id="JzmQsRfm4UZ02VzO3dNn-38" value="Batterie 48V" style="rounded=0;whiteSpace=wrap;html=1;fillColor=#a20025;fontColor=#ffffff;strokeColor=#6F0000;" vertex="1" parent="1">
          <mxGeometry x="340" y="600" width="120" height="60" as="geometry" />
        </mxCell>
        <mxCell id="JzmQsRfm4UZ02VzO3dNn-40" value="" style="endArrow=classic;html=1;rounded=0;exitX=0.5;exitY=1;exitDx=0;exitDy=0;entryX=0.5;entryY=0;entryDx=0;entryDy=0;" edge="1" parent="1" source="JzmQsRfm4UZ02VzO3dNn-31" target="JzmQsRfm4UZ02VzO3dNn-38">
          <mxGeometry width="50" height="50" relative="1" as="geometry">
            <mxPoint x="250" y="660" as="sourcePoint" />
            <mxPoint x="300" y="610" as="targetPoint" />
            <Array as="points">
              <mxPoint x="305" y="520" />
              <mxPoint x="400" y="520" />
            </Array>
          </mxGeometry>
        </mxCell>
        <mxCell id="JzmQsRfm4UZ02VzO3dNn-41" value="" style="endArrow=none;html=1;rounded=0;entryX=0;entryY=0.5;entryDx=0;entryDy=0;exitX=0.5;exitY=1;exitDx=0;exitDy=0;fillColor=#a20025;strokeColor=#6F0000;strokeWidth=7;" edge="1" parent="1" source="JzmQsRfm4UZ02VzO3dNn-13" target="JzmQsRfm4UZ02VzO3dNn-38">
          <mxGeometry width="50" height="50" relative="1" as="geometry">
            <mxPoint x="-60" y="630" as="sourcePoint" />
            <mxPoint x="220" y="630" as="targetPoint" />
            <Array as="points">
              <mxPoint x="-65" y="630" />
            </Array>
          </mxGeometry>
        </mxCell>
        <mxCell id="JzmQsRfm4UZ02VzO3dNn-43" value="" style="endArrow=none;html=1;rounded=0;entryX=0;entryY=0.5;entryDx=0;entryDy=0;fillColor=#a20025;strokeColor=#6F0000;strokeWidth=7;exitX=0;exitY=0.5;exitDx=0;exitDy=0;" edge="1" parent="1" source="JzmQsRfm4UZ02VzO3dNn-11">
          <mxGeometry width="50" height="50" relative="1" as="geometry">
            <mxPoint x="-180" y="350" as="sourcePoint" />
            <mxPoint x="-65" y="630" as="targetPoint" />
            <Array as="points">
              <mxPoint x="-180" y="345" />
              <mxPoint x="-180" y="630" />
            </Array>
          </mxGeometry>
        </mxCell>
        <mxCell id="JzmQsRfm4UZ02VzO3dNn-46" value="" style="endArrow=none;html=1;rounded=0;entryX=0;entryY=0.5;entryDx=0;entryDy=0;exitX=0.5;exitY=1;exitDx=0;exitDy=0;fillColor=#a20025;strokeColor=#6F0000;strokeWidth=7;" edge="1" parent="1">
          <mxGeometry width="50" height="50" relative="1" as="geometry">
            <mxPoint x="865" y="460" as="sourcePoint" />
            <mxPoint x="460" y="630" as="targetPoint" />
            <Array as="points">
              <mxPoint x="865" y="630" />
            </Array>
          </mxGeometry>
        </mxCell>
        <mxCell id="JzmQsRfm4UZ02VzO3dNn-47" value="" style="endArrow=none;html=1;rounded=0;fillColor=#a20025;strokeColor=#6F0000;strokeWidth=7;exitX=1;exitY=0.5;exitDx=0;exitDy=0;" edge="1" parent="1" source="JzmQsRfm4UZ02VzO3dNn-21">
          <mxGeometry width="50" height="50" relative="1" as="geometry">
            <mxPoint x="935" y="350" as="sourcePoint" />
            <mxPoint x="860" y="630" as="targetPoint" />
            <Array as="points">
              <mxPoint x="985" y="345" />
              <mxPoint x="985" y="630" />
            </Array>
          </mxGeometry>
        </mxCell>
        <mxCell id="JzmQsRfm4UZ02VzO3dNn-49" value="" style="endArrow=none;html=1;rounded=0;exitX=1;exitY=0;exitDx=0;exitDy=0;entryX=0;entryY=1;entryDx=0;entryDy=0;fillColor=#a20025;strokeColor=#6F0000;strokeWidth=5;" edge="1" parent="1" source="JzmQsRfm4UZ02VzO3dNn-2" target="JzmQsRfm4UZ02VzO3dNn-37">
          <mxGeometry width="50" height="50" relative="1" as="geometry">
            <mxPoint x="500" y="280" as="sourcePoint" />
            <mxPoint x="550" y="230" as="targetPoint" />
          </mxGeometry>
        </mxCell>
      </root>
    </mxGraphModel>
  </diagram>
</mxfile>
